<svg id="Layer_1" data-name="Layer 1" xmlns="http://www.w3.org/2000/svg" xmlns:xlink="http://www.w3.org/1999/xlink" viewBox="0 0 570.16 543.77"><defs><style>.cls-1{fill:#ffbd39;}.cls-2{fill:url(#linear-gradient);}.cls-3{fill:#fff;}.cls-4{opacity:0.6;}.cls-5{fill:#ff5f82;}.cls-6{fill:#541300;}.cls-7{fill:#872a2a;}</style><linearGradient id="linear-gradient" x1="2025.31" y1="247.69" x2="2337.51" y2="622.72" gradientUnits="userSpaceOnUse"><stop offset="0.04" stop-color="#fff466"/><stop offset="0.08" stop-color="#fff466"/><stop offset="0.32" stop-color="#ffec5f"/><stop offset="0.69" stop-color="#ffd54d"/><stop offset="0.86" stop-color="#ffc943"/></linearGradient></defs><path class="cls-1" d="M2157.59,100.89c42.44,0,100.94,148.74,107.42,152.78s163.6,23,176.63,53.6S2333.78,448.38,2330.78,455.9s27.21,164.71,2.36,185.29-166.89-59.88-175.55-59.92-145,80.92-175.55,59.92,4.57-176.78,2.36-185.29-124.67-108.17-110.86-148.63,171-49.41,176.63-53.6S2115.15,100.89,2157.59,100.89Z" transform="translate(-1872.46 -100.89)"/><path class="cls-2" d="M2157.59,119.36c39.55,0,91.42,144,97.46,147.72s155.14,16.15,167.29,44.64-103.2,128.87-106,135.87,28,156.19,4.85,175.36-155.55-58.46-163.62-58.51S2022.47,642.53,1994,623s9.58-164.77,7.52-172.7S1880,349.43,1892.83,311.72s164.7-40.73,170-44.64S2118,119.36,2157.59,119.36Z" transform="translate(-1872.46 -100.89)"/><path class="cls-3" d="M1927.45,318.69c-2.75-26.81,85.23-42.6,89.12-11.22S1931.21,355.24,1927.45,318.69Z" transform="translate(-1872.46 -100.89)"/><path class="cls-3" d="M2039.09,298.66c-.66-17.25,25.65-18.3,27-4.15C2067.64,310.36,2039.71,314.8,2039.09,298.66Z" transform="translate(-1872.46 -100.89)"/><g class="cls-4"><g class="cls-4"><path class="cls-5" d="M2078.32,442.78c0,17.45-15.32,31.6-34.22,31.6s-34.22-14.15-34.22-31.6,15.32-31.59,34.22-31.59S2078.32,425.34,2078.32,442.78Z" transform="translate(-1872.46 -100.89)"/></g><g class="cls-4"><path class="cls-5" d="M2312.09,442.78c0,17.45-15.32,31.6-34.22,31.6s-34.22-14.15-34.22-31.6,15.33-31.59,34.22-31.59S2312.09,425.34,2312.09,442.78Z" transform="translate(-1872.46 -100.89)"/></g></g><path class="cls-6" d="M2198.89,385.59c-9.26-7.83,4.51-31.28,41.35-31.28s49.9,22.94,42.25,31.28c-6.62,7.22-14.73-11-41.35-11S2206.71,392.2,2198.89,385.59Z" transform="translate(-1872.46 -100.89)"/><path class="cls-6" d="M2065.7,326.21c-49.23,3.17-35.87,75.6,3.68,74.27S2114.93,323,2065.7,326.21Z" transform="translate(-1872.46 -100.89)"/><path class="cls-3" d="M2082.79,360.3c-10.47-.93-13.8,18.86-1.94,20.69S2097.66,361.61,2082.79,360.3Z" transform="translate(-1872.46 -100.89)"/><path class="cls-7" d="M2209.12,441.49c9.45-11.73-4.22-20.78-13.19-9.89-13.6,16.48-67.52,15.16-81.36,0-9.52-10.43-21.76-2.5-13.19,9.89C2118.35,466.05,2186,470.15,2209.12,441.49Z" transform="translate(-1872.46 -100.89)"/><path class="cls-6" d="M2080.78,283.75c-11.52-12.93-64.44,1.25-76.2,36.21-1,7,17.26-8.94,38.22-19.71C2060.19,291.31,2083.8,287.13,2080.78,283.75Z" transform="translate(-1872.46 -100.89)"/><path class="cls-6" d="M2212.18,333.42c7.4-16.66,65-19.42,88,11.86,3.29,6.69-20.18-3.44-44.66-7.51C2235.25,334.4,2210.24,337.77,2212.18,333.42Z" transform="translate(-1872.46 -100.89)"/></svg>