<svg id="Layer_76" data-name="Layer 76" xmlns="http://www.w3.org/2000/svg" viewBox="0 0 411.75 411.75"><defs><style>.cls-1{fill:#dc4844;}.cls-2{fill:#fcb54a;}.cls-3{fill:#54c1c8;}</style></defs><circle class="cls-1" cx="811.46" cy="3700.12" r="205.87" transform="translate(-2984.3 -1836.72) rotate(-45)"/><path class="cls-2" d="M747,3653.48l37.9,25.59a34.33,34.33,0,0,1,9.5-7.73c-3.77-8.83-10.63-25-15-36-8.72-22.06-22.88-34.71-38.68-21.69C717.19,3633,747,3653.48,747,3653.48Z" transform="translate(-605.59 -3494.25)"/><path class="cls-2" d="M731.89,3700.2l44.8-1.46a33.83,33.83,0,0,1,3.35-12.29c-8.37-5-22.85-13.81-32.52-20-20-12.75-38.87-14.71-44,5.1C695.76,3701.08,731.89,3700.2,731.89,3700.2Z" transform="translate(-605.59 -3494.25)"/><path class="cls-2" d="M803.25,3668a34.56,34.56,0,0,1,7.59-.87,35,35,0,0,1,4.24.29c2.27-9.16,6.69-26.74,9.92-38.38,6.35-22.85,2.68-41.47-17.77-40.62-30.47,1.26-19,35.54-19,35.54Z" transform="translate(-605.59 -3494.25)"/><path class="cls-2" d="M833.51,3675.75c7.19-6.07,21.15-17.78,30.62-25.35,18.53-14.79,26.48-32,9.4-43.33-25.43-16.83-36.26,17.64-36.26,17.64l-13.72,44.89A34.24,34.24,0,0,1,833.51,3675.75Z" transform="translate(-605.59 -3494.25)"/><path class="cls-2" d="M839.31,3682.32a34,34,0,0,1,4.78,10.88c9.51-.71,27.3-2,39.21-2.56,23.69-1.13,40.23-10.44,33-29.6-10.74-28.54-39.72-6.95-39.72-6.95Z" transform="translate(-605.59 -3494.25)"/><path class="cls-2" d="M891.25,3700.94l-46.16,1A34.1,34.1,0,0,1,842.7,3714c8.27,5.1,22.87,14.15,32.56,20.47,19.86,13,38.72,15.13,44.1-4.63C927.39,3700.43,891.25,3700.94,891.25,3700.94Z" transform="translate(-605.59 -3494.25)"/><path class="cls-2" d="M875.67,3747.48l-37.27-25.74a34.39,34.39,0,0,1-9.4,8.71c3.77,9.1,10,24.34,14,34.84,8.49,22.15,22.51,34.95,38.45,22.1C905.24,3768.25,875.67,3747.48,875.67,3747.48Z" transform="translate(-605.59 -3494.25)"/><path class="cls-2" d="M787.7,3726.65c-7.51,6.47-19.65,16.85-28.15,23.78-18.38,15-26.14,32.32-8.95,43.44,25.61,16.55,36.08-18,36.08-18l12.42-42.25A34.29,34.29,0,0,1,787.7,3726.65Z" transform="translate(-605.59 -3494.25)"/><path class="cls-2" d="M820.94,3734.18a34.43,34.43,0,0,1-10.1,1.51c-1,0-2.05-.06-3.06-.15-2.29,9.64-6.06,25.21-8.88,35.84-6.11,22.92-2.25,41.5,18.2,40.44,30.45-1.59,18.66-35.75,18.66-35.75Z" transform="translate(-605.59 -3494.25)"/><path class="cls-2" d="M782,3719.85a34,34,0,0,1-4.82-12.25c-9.85.83-26.08,2.15-37.21,2.8-23.67,1.38-40.12,10.86-32.7,29.95,11,28.42,39.8,6.54,39.8,6.54Z" transform="translate(-605.59 -3494.25)"/><circle class="cls-3" cx="205.48" cy="206.69" r="26.35"/></svg>